<?xml version="1.0" encoding="utf-8"?>
<svg viewBox="0 0 460 460" width="460" height="460" fill="#092fac" style="enable-background:new 0 0 459.999 459.999;" xmlns="http://www.w3.org/2000/svg">
  <g transform="matrix(1, 0, 0, 1, -9, 0)">
    <path d="M 418.017 295.216 L 418.017 245.294 C 392.515 236.227 376.405 233.678 368.295 214.108 L 368.295 214.093 C 360.155 194.46 369.839 181.131 381.378 156.833 L 346.083 121.538 C 321.972 132.999 308.502 142.777 288.824 134.621 L 288.808 134.621 C 269.208 126.497 266.643 110.277 257.623 84.899 L 207.858 121.044 C 198.869 146.299 196.131 126.481 176.515 134.621 L 176.499 134.621 C 156.866 142.777 176.138 164.056 151.81 152.487 L 83.945 156.833 C 95.452 181.052 105.183 194.429 97.027 214.093 C 88.887 233.725 72.561 236.304 47.306 245.294 L 47.306 295.216 C 72.515 304.175 88.887 306.786 97.027 326.402 C 105.214 346.204 95.267 359.859 83.945 383.662 L 119.239 418.972 C 143.366 407.495 156.836 397.733 176.499 405.889 L 176.515 405.889 C 196.131 414.013 198.695 430.279 207.7 455.611 L 257.623 455.611 C 266.613 430.34 269.208 414.06 288.932 405.843 L 288.947 405.843 C 308.441 397.749 321.693 407.403 346.068 418.987 L 381.363 383.677 C 369.871 359.535 360.124 346.096 368.265 326.434 C 376.405 306.801 392.794 304.19 418.017 295.216 Z M 232.661 332.041 C 198.54 332.041 170.876 304.376 170.876 270.255 C 170.876 236.134 198.54 208.469 232.661 208.469 C 266.783 208.469 294.447 236.134 294.447 270.255 C 294.447 304.376 266.783 332.041 232.661 332.041 Z" style="" transform="matrix(0.92388, 0.382683, -0.382683, 0.92388, 121.132077, -68.463656)"/>
    <path d="M 212.424 265.538 C 223.337 276.333 240.927 276.294 251.815 265.426 L 335.503 181.739 C 346.414 170.829 346.414 153.14 335.503 142.23 C 324.594 131.319 306.905 131.319 295.994 142.23 L 259.999 178.224 L 259.999 39.887 C 259.999 24.457 247.491 11.95 232.061 11.95 C 216.63 11.95 204.123 24.457 204.123 39.887 L 204.123 178.225 L 168.128 142.231 C 157.216 131.319 139.527 131.319 128.618 142.231 C 117.708 153.142 117.708 170.831 128.618 181.74 C 129.872 182.996 211.168 264.292 212.424 265.538 Z" style="stroke: rgb(255, 255, 255); stroke-linecap: round; stroke-linejoin: round; paint-order: stroke; stroke-width: 60px;"/>
  </g>
</svg>