<?xml version="1.0" encoding="iso-8859-1"?>
<!-- Generator: Adobe Illustrator 19.0.0, SVG Export Plug-In . SVG Version: 6.00 Build 0)  -->
<svg version="1.1" id="Layer_1" fill="#092fac" width="34" height="34" xmlns="http://www.w3.org/2000/svg" xmlns:xlink="http://www.w3.org/1999/xlink" x="0px" y="0px"
	 viewBox="0 0 512 512" style="enable-background:new 0 0 512 512;" xml:space="preserve">
<g>
	<g>
		<g>
			<path d="M273.069,439.425c0.226-0.302,0.461-0.598,0.671-0.913c0.204-0.304,0.38-0.62,0.566-0.932
				c0.17-0.285,0.349-0.564,0.506-0.857c0.17-0.318,0.315-0.646,0.468-0.971c0.145-0.306,0.297-0.607,0.428-0.921
				c0.13-0.315,0.236-0.637,0.35-0.957c0.121-0.337,0.25-0.669,0.354-1.013c0.097-0.32,0.168-0.646,0.249-0.969
				c0.089-0.351,0.187-0.698,0.258-1.055c0.074-0.375,0.118-0.753,0.173-1.13c0.044-0.311,0.104-0.617,0.135-0.933
				c0.138-1.4,0.138-2.811,0-4.211c-0.031-0.315-0.09-0.621-0.135-0.933c-0.054-0.377-0.098-0.756-0.173-1.13
				c-0.071-0.358-0.169-0.704-0.258-1.055c-0.081-0.324-0.152-0.649-0.249-0.969c-0.104-0.344-0.233-0.677-0.354-1.013
				c-0.115-0.32-0.22-0.642-0.35-0.957c-0.13-0.314-0.283-0.615-0.428-0.921c-0.153-0.325-0.297-0.653-0.468-0.971
				c-0.157-0.293-0.336-0.572-0.506-0.857c-0.186-0.312-0.363-0.628-0.566-0.932c-0.211-0.315-0.445-0.611-0.671-0.913
				c-0.191-0.255-0.368-0.516-0.571-0.764c-0.439-0.535-0.903-1.05-1.392-1.54c-0.007-0.008-0.014-0.016-0.021-0.023l-64-64
				c-8.331-8.331-21.839-8.331-30.17,0c-8.331,8.331-8.331,21.839,0,30.17l27.582,27.582h-33.83c-35.386,0-64-28.614-64-64V128
				c23.558,0,42.667-19.109,42.667-42.667V42.667C149.333,19.109,130.225,0,106.667,0H64C40.442,0,21.333,19.109,21.333,42.667
				v42.667C21.333,108.891,40.442,128,64,128v213.333C64,400.283,111.717,448,170.667,448h33.83l-27.582,27.582
				c-8.331,8.331-8.331,21.839,0,30.17c8.331,8.331,21.839,8.331,30.17,0l64-64c0.008-0.008,0.014-0.016,0.021-0.023
				c0.488-0.49,0.952-1.004,1.392-1.54C272.701,439.941,272.878,439.68,273.069,439.425z M64,42.667h42.667v42.667H64V42.667z"/>
			<path d="M448,384V170.667C448,111.717,400.283,64,341.333,64h-33.83l27.582-27.582c8.331-8.331,8.331-21.839,0-30.17
				c-8.331-8.331-21.839-8.331-30.17,0l-64,64c-0.004,0.004-0.007,0.008-0.011,0.012c-0.492,0.493-0.959,1.012-1.402,1.551
				c-0.203,0.247-0.379,0.507-0.568,0.76c-0.227,0.304-0.463,0.601-0.674,0.917c-0.203,0.303-0.379,0.618-0.565,0.93
				c-0.171,0.286-0.35,0.565-0.508,0.86c-0.17,0.318-0.314,0.645-0.467,0.969c-0.145,0.307-0.298,0.609-0.428,0.923
				c-0.13,0.315-0.235,0.636-0.35,0.956c-0.121,0.337-0.25,0.67-0.355,1.015c-0.097,0.32-0.168,0.645-0.249,0.968
				c-0.089,0.351-0.187,0.698-0.258,1.056c-0.074,0.375-0.118,0.753-0.172,1.13c-0.044,0.311-0.104,0.618-0.135,0.933
				c-0.138,1.4-0.138,2.811,0,4.211c0.031,0.315,0.09,0.621,0.135,0.932c0.054,0.378,0.098,0.756,0.173,1.13
				c0.071,0.358,0.169,0.704,0.258,1.055c0.081,0.324,0.152,0.649,0.249,0.969c0.104,0.344,0.233,0.677,0.354,1.013
				c0.115,0.32,0.22,0.642,0.35,0.957c0.13,0.314,0.283,0.616,0.428,0.922c0.153,0.325,0.297,0.652,0.467,0.97
				c0.157,0.294,0.337,0.573,0.507,0.859c0.186,0.312,0.362,0.627,0.565,0.931c0.211,0.315,0.446,0.612,0.673,0.915
				c0.19,0.254,0.367,0.515,0.57,0.762c0.443,0.539,0.909,1.058,1.402,1.551c0.004,0.004,0.007,0.008,0.011,0.012l64,64
				c8.331,8.331,21.839,8.331,30.17,0s8.331-21.839,0-30.17l-27.582-27.582h33.83c35.386,0,64,28.614,64,64V384
				c-23.558,0-42.667,19.109-42.667,42.667v42.667c0,23.558,19.109,42.667,42.667,42.667H448c23.558,0,42.667-19.109,42.667-42.667
				v-42.667C490.667,403.109,471.558,384,448,384z M448,469.333h-42.667v-42.667H448V469.333z"/>
		</g>
	</g>
</g>
<g>
</g>
<g>
</g>
<g>
</g>
<g>
</g>
<g>
</g>
<g>
</g>
<g>
</g>
<g>
</g>
<g>
</g>
<g>
</g>
<g>
</g>
<g>
</g>
<g>
</g>
<g>
</g>
<g>
</g>
</svg>
