<?xml version="1.0" encoding="iso-8859-1"?>
<!-- Generator: Adobe Illustrator 19.0.0, SVG Export Plug-In . SVG Version: 6.00 Build 0)  -->
<svg version="1.1" id="Layer_1" fill="#092fac"  width="30" height="30" xmlns="http://www.w3.org/2000/svg" xmlns:xlink="http://www.w3.org/1999/xlink" x="0px" y="0px"
	 viewBox="0 0 512 512" style="enable-background:new 0 0 512 512;" xml:space="preserve">
<g>
	<g>
		<path d="M490.667,53.333V32c0-11.776-9.557-21.333-21.333-21.333H384c-11.776,0-21.333,9.557-21.333,21.333v21.333
			c-11.776,0-21.333,9.557-21.333,21.333V160c0,11.776,9.557,21.333,21.333,21.333h42.667v128c0,28.523-8.171,55.104-22.101,77.803
			c0.491-4.544,0.768-9.131,0.768-13.803c0-70.592-57.408-128-128-128s-128,57.408-128,128c0,4.672,0.277,9.259,0.768,13.803
			c-13.931-22.699-22.101-49.28-22.101-77.803v-128h42.667c11.776,0,21.333-9.557,21.333-21.333V74.667
			c0-11.776-9.557-21.333-21.333-21.333V32c0-11.776-9.557-21.333-21.333-21.333H42.667c-11.776,0-21.333,9.557-21.333,21.333
			v21.333C9.557,53.333,0,62.891,0,74.667V160c0,11.776,9.557,21.333,21.333,21.333H64v128c0,101.44,79.168,184.555,178.923,191.339
			c4.309,0.448,8.661,0.661,13.077,0.661s8.768-0.213,13.077-0.661C368.832,493.888,448,410.773,448,309.333v-128h42.667
			c11.797,0,21.333-9.557,21.333-21.333V74.667C512,62.891,502.464,53.333,490.667,53.333z M256,458.667
			c-47.061,0-85.333-38.272-85.333-85.333C170.667,326.273,208.939,288,256,288c47.061,0,85.333,38.272,85.333,85.333
			C341.333,420.394,303.061,458.667,256,458.667z"/>
	</g>
</g>
</svg>
