<?xml version="1.0" encoding="utf-8"?>
<svg viewBox="0 0 500 500" fill="#092fac" width="500" height="500" xmlns="http://www.w3.org/2000/svg">
  <g transform="matrix(1.199977, 0, 0, 1.266271, -0.779355, -6.153366)" style="">
    <path d="M 389.681 85.407 L 31.747 85.407 C 21.961 85.407 14.028 93.341 14.028 103.126 L 14.028 360.92 C 14.028 370.706 21.962 378.639 31.747 378.639 L 389.68 378.639 C 399.467 378.639 407.399 370.704 407.399 360.92 L 407.399 103.126 C 407.4 93.34 399.466 85.407 389.681 85.407 Z M 354.243 111 C 363.343 111 370.722 118.376 370.722 127.477 C 370.722 136.579 363.344 143.956 354.243 143.956 C 345.142 143.956 337.764 136.58 337.764 127.477 C 337.764 118.377 345.14 111 354.243 111 Z M 309.943 111 C 319.043 111 326.42 118.376 326.42 127.477 C 326.42 136.579 319.045 143.956 309.943 143.956 C 300.841 143.956 293.464 136.58 293.464 127.477 C 293.464 118.377 300.841 111 309.943 111 Z M 265.645 111 C 274.744 111 282.122 118.376 282.122 127.477 C 282.122 136.579 274.746 143.956 265.645 143.956 C 256.543 143.956 249.165 136.58 249.165 127.477 C 249.166 118.377 256.543 111 265.645 111 Z M 371.961 343.2 L 49.467 343.2 L 49.467 166.046 L 371.961 166.046 L 371.961 343.2 L 371.961 343.2 Z" style=""/>
  </g>
  <g transform="matrix(1.276012, 0, 0, 1.276012, -57.67205, 59.653358)" style="">
    <g>
      <g>
        <path d="M 219.207 210.971 C 228.974 220.631 244.715 220.595 254.457 210.871 L 329.345 135.984 C 339.108 126.221 339.108 110.392 329.345 100.629 C 319.583 90.866 303.754 90.866 293.99 100.629 L 261.78 132.838 L 261.78 9.049 C 261.78 -4.759 250.587 -15.951 236.78 -15.951 C 222.973 -15.951 211.78 -4.759 211.78 9.049 L 211.78 132.839 L 179.57 100.63 C 169.806 90.866 153.977 90.866 144.215 100.63 C 134.452 110.394 134.452 126.223 144.215 135.985 C 145.337 137.109 218.084 209.856 219.207 210.971 Z" style="stroke: rgb(255, 255, 255); paint-order: stroke; stroke-width: 40px;" transform="matrix(-1, 0, 0, -1, 473.559982, 202.239098)"/>
      </g>
    </g>
  </g>
</svg>