<?xml version="1.0" encoding="iso-8859-1"?>
<!-- Generator: Adobe Illustrator 19.0.0, SVG Export Plug-In . SVG Version: 6.00 Build 0)  -->
<svg version="1.1" id="Layer_1" fill="#092fac" width="30" height="30" xmlns="http://www.w3.org/2000/svg" xmlns:xlink="http://www.w3.org/1999/xlink" x="0px" y="0px"
	 viewBox="0 0 513 512" style="enable-background:new 0 0 512 512;" xml:space="preserve">
<g>
	<g>
		<path d="M426.667,362.667c-9.856,0-19.072,2.411-27.413,6.421l-54.357-54.357c11.179-16.875,17.771-37.035,17.771-58.731
			s-6.592-41.877-17.771-58.731l38.699-38.699c12.693,7.509,27.285,12.096,43.072,12.096c47.061,0,85.333-38.272,85.333-85.333
			S473.728,0,426.667,0s-85.333,38.272-85.333,85.333c0,15.787,4.587,30.379,12.096,43.072l-38.699,38.699
			c-16.875-11.179-37.035-17.771-58.731-17.771s-41.856,6.592-58.731,17.771l-75.691-75.691C125.589,83.072,128,73.856,128,64
			c0-35.285-28.715-64-64-64S0,28.715,0,64s28.715,64,64,64c9.856,0,19.072-2.432,27.413-6.421l75.691,75.691
			c-11.179,16.853-17.771,37.035-17.771,58.731s6.592,41.856,17.771,58.731l-38.699,38.699
			c-12.693-7.488-27.285-12.096-43.072-12.096C38.272,341.333,0,379.605,0,426.667S38.272,512,85.333,512
			s85.333-38.272,85.333-85.333c0-15.765-4.587-30.379-12.096-43.072l38.699-38.699c16.875,11.179,37.035,17.771,58.731,17.771
			s41.856-6.592,58.731-17.771l54.357,54.357c-4.011,8.341-6.421,17.557-6.421,27.413c0,35.285,28.715,64,64,64s64-28.715,64-64
			S461.952,362.667,426.667,362.667z"/>
	</g>
</g>
</svg>
