<?xml version="1.0" encoding="utf-8"?>
<svg viewBox="0 0 460 460" width="460" height="460" fill="white" style="enable-background:new 0 0 459.999 459.999;" xmlns="http://www.w3.org/2000/svg">
  <g>
    <g>
      <g>
        <path d="M431.654,312.404H28.346C12.691,312.404,0,325.094,0,340.75v68.307c0,15.655,12.691,28.346,28.346,28.346h403.307 c15.655,0,28.346-12.691,28.346-28.346V340.75C460,325.094,447.309,312.404,431.654,312.404z"/>
      </g>
    </g>
    <path d="M 171.854 144.474 L 269.137 144.474 C 295.955 144.474 317.779 166.298 317.779 193.116 C 317.779 219.934 295.955 241.757 269.137 241.757 L 220.495 241.757 L 220.495 274.185 L 269.137 274.185 C 313.839 274.185 350.206 237.818 350.206 193.116 C 350.206 148.414 313.839 112.046 269.137 112.046 L 171.854 112.046 L 171.854 63.405 L 90.784 128.26 L 171.854 193.116 L 171.854 144.474 Z" style="stroke: white; paint-order: fill; stroke-linecap: round; stroke-linejoin: round; stroke-width: 18px;"/>
  </g>
</svg>