<?xml version="1.0" encoding="utf-8"?>
<svg viewBox="0 0 460 460" width="460" height="460" fill="#092fac" style="enable-background:new 0 0 459.999 459.999;" xmlns="http://www.w3.org/2000/svg">
  <g>
    <g>
      <g>
        <path d="M 212.991 269.295 C 222.758 278.955 238.499 278.919 248.241 269.195 L 323.129 194.308 C 332.892 184.545 332.892 168.716 323.129 158.953 C 313.367 149.19 297.538 149.19 287.774 158.953 L 255.564 191.162 L 255.564 67.373 C 255.564 53.565 244.371 42.373 230.564 42.373 C 216.757 42.373 205.564 53.565 205.564 67.373 L 205.564 191.163 L 173.354 158.954 C 163.59 149.19 147.761 149.19 137.999 158.954 C 128.236 168.718 128.236 184.547 137.999 194.309 C 139.121 195.433 211.868 268.18 212.991 269.295 Z" transform="matrix(-1, 0, 0, -1, 461.127975, 318.8871)"/>
        <path d="M431.654,312.404H28.346C12.691,312.404,0,325.094,0,340.75v68.307c0,15.655,12.691,28.346,28.346,28.346h403.307 c15.655,0,28.346-12.691,28.346-28.346V340.75C460,325.094,447.309,312.404,431.654,312.404z"/>
      </g>
    </g>
  </g>
</svg>