<?xml version="1.0" encoding="utf-8"?>
<svg viewBox="0 0 460 460" width="460" height="460" fill="white" style="enable-background:new 0 0 459.999 459.999;" xmlns="http://www.w3.org/2000/svg">
  <g>
    <g transform="matrix(1, 0, 0, 1, 71.471077, 123.933884)">
      <g>
        <path d="M 361.056 150.931 L 263.401 105.375 C 258.594 103.13 252.969 103.497 248.495 106.35 C 244.019 109.201 241.309 114.141 241.309 119.447 L 241.309 140.625 L 165.747 105.375 C 160.939 103.13 155.316 103.497 150.84 106.35 C 146.364 109.201 143.654 114.141 143.654 119.447 L 143.654 140.625 L 127.723 133.192 L 127.723 58.653 C 127.723 50.077 120.773 43.126 112.195 43.126 L 94.918 43.126 C 86.34 43.126 79.39 50.077 79.39 58.653 L 79.39 110.644 L 68.092 105.373 C 63.287 103.128 57.662 103.495 53.186 106.347 C 51.19 107.619 49.571 109.321 48.359 111.269 L 41.304 -53.792 C 40.948 -62.102 34.107 -68.656 25.79 -68.656 L -3.77 -68.656 C -12.055 -68.656 -18.881 -62.152 -19.279 -53.877 L -27.003 106.563 L -29.562 105.369 C -34.368 103.125 -39.993 103.491 -44.469 106.344 C -48.945 109.201 -51.655 114.141 -51.655 119.447 L -51.655 306.056 C -51.655 314.631 -44.705 321.584 -36.127 321.584 L 354.491 321.584 C 363.068 321.584 370.018 314.631 370.018 306.056 L 370.018 165.004 C 370.018 158.97 366.521 153.482 361.056 150.931 Z M 37.424 246.217 C 37.424 254.792 30.474 261.744 21.897 261.744 L -4.293 261.744 C -12.871 261.744 -19.821 254.792 -19.821 246.217 L -19.821 209.201 C -19.821 200.625 -12.871 193.674 -4.293 193.674 L 21.897 193.674 C 30.474 193.674 37.424 200.625 37.424 209.201 L 37.424 246.217 Z M 248.818 246.217 C 248.818 254.792 241.867 261.744 233.289 261.744 L 207.102 261.744 C 198.524 261.744 191.574 254.792 191.574 246.217 L 191.574 209.201 C 191.574 200.625 198.524 193.674 207.102 193.674 L 233.289 193.674 C 241.867 193.674 248.818 200.625 248.818 209.201 L 248.818 246.217 Z M 336.744 246.217 C 336.744 254.792 329.793 261.744 321.216 261.744 L 295.026 261.744 C 286.448 261.744 279.498 254.792 279.498 246.217 L 279.498 209.201 C 279.498 200.625 286.448 193.674 295.026 193.674 L 321.216 193.674 C 329.793 193.674 336.744 200.625 336.744 209.201 L 336.744 246.217 Z" style=""/>
        <g transform="matrix(1, 0, 0, 1, -26.230913, -35.359074)">
          <g>
            <g>
              <path d="M 154.446 187.179 C 164.213 196.839 179.954 196.803 189.696 187.079 L 264.584 112.192 C 274.347 102.429 274.347 86.6 264.584 76.837 C 254.822 67.074 238.993 67.074 229.229 76.837 L 197.019 109.046 L 197.019 39.415 L 197.019 -14.743 C 197.019 -28.551 185.826 -39.743 172.019 -39.743 C 158.212 -39.743 147.019 -28.551 147.019 -14.743 L 147.019 109.047 L 114.809 76.838 C 105.045 67.074 89.216 67.074 79.454 76.838 C 69.691 86.602 69.691 102.431 79.454 112.193 C 80.576 113.317 153.323 186.064 154.446 187.179 Z" transform="matrix(1, 0, 0, 1, -0.000017, 0.000037)" style="stroke: rgb(9, 47, 172); stroke-dashoffset: 1px; paint-order: stroke; stroke-width: 80px;"/>
            </g>
          </g>
        </g>
      </g>
    </g>
  </g>
</svg>