<?xml version="1.0" encoding="utf-8"?>
<svg viewBox="0 0 460 460" width="460" height="460" fill="#092fac" style="enable-background:new 0 0 459.999 459.999;" xmlns="http://www.w3.org/2000/svg">
  <g>
    <g transform="matrix(1, 0, 0, 1, 71.471077, 123.933884)">
      <g>
        <path d="M 379.717 172.544 L 273.771 130.03 C 268.555 127.938 262.454 128.279 257.601 130.942 C 252.744 133.6 249.804 138.212 249.804 143.161 L 249.804 162.924 L 167.826 130.03 C 162.611 127.938 156.51 128.279 151.652 130.942 C 146.797 133.6 143.855 138.212 143.855 143.161 L 143.855 162.924 L 126.574 155.99 L 126.574 86.432 C 126.574 78.43 119.035 71.942 109.725 71.942 L 90.982 71.942 C 81.675 71.942 74.135 78.43 74.135 86.432 L 74.135 134.948 L 61.879 130.028 C 56.665 127.935 50.561 128.276 45.708 130.94 C 43.54 132.126 41.784 133.713 40.47 135.532 L 32.816 -18.496 C 32.431 -26.252 25.008 -32.367 15.984 -32.367 L -16.086 -32.367 C -25.074 -32.367 -32.48 -26.297 -32.91 -18.574 L -41.292 131.139 L -44.067 130.026 C -49.282 127.933 -55.383 128.271 -60.238 130.936 C -65.095 133.6 -68.036 138.212 -68.036 143.161 L -68.036 317.298 C -68.036 325.3 -60.494 331.789 -51.192 331.789 L 372.597 331.789 C 381.901 331.789 389.442 325.3 389.442 317.298 L 389.442 185.675 C 389.442 180.043 385.645 174.923 379.717 172.544 Z M 28.606 261.459 C 28.606 269.461 21.068 275.949 11.761 275.949 L -16.655 275.949 C -25.961 275.949 -33.499 269.461 -33.499 261.459 L -33.499 226.914 C -33.499 218.915 -25.961 212.429 -16.655 212.429 L 11.761 212.429 C 21.068 212.429 28.606 218.915 28.606 226.914 L 28.606 261.459 Z M 257.952 261.459 C 257.952 269.461 250.408 275.949 241.103 275.949 L 212.693 275.949 C 203.384 275.949 195.843 269.461 195.843 261.459 L 195.843 226.914 C 195.843 218.915 203.384 212.429 212.693 212.429 L 241.103 212.429 C 250.408 212.429 257.952 218.915 257.952 226.914 L 257.952 261.459 Z M 353.344 261.459 C 353.344 269.461 345.801 275.949 336.495 275.949 L 308.084 275.949 C 298.775 275.949 291.234 269.461 291.234 261.459 L 291.234 226.914 C 291.234 218.915 298.775 212.429 308.084 212.429 L 336.495 212.429 C 345.801 212.429 353.344 218.915 353.344 226.914 L 353.344 261.459 Z" style="fill: rgb(255, 255, 255);"/>
        <g transform="matrix(0.919605, 0, 0, 0.919605, -5.787066, -210.826599)" style="">
          <path d="M 177.176 190.854 L 274.459 190.854 C 301.277 190.854 323.101 212.678 323.101 239.496 C 323.101 266.314 301.277 288.137 274.459 288.137 L 225.817 288.137 L 225.817 320.565 L 274.459 320.565 C 319.161 320.565 355.528 284.198 355.528 239.496 C 355.528 194.794 319.161 158.426 274.459 158.426 L 177.176 158.426 L 177.176 109.785 L 96.106 174.64 L 177.176 239.496 L 177.176 190.854 Z" style="paint-order: fill; stroke-linecap: round; stroke-linejoin: round; stroke-width: 18px; fill: rgb(255, 255, 255); stroke: rgb(255, 255, 255);"/>
        </g>
      </g>
    </g>
  </g>
</svg>